<svg width="118" height="27" viewBox="0 0 118 27" fill="none" xmlns="http://www.w3.org/2000/svg">
<path d="M88.9275 0L0 3.46715L1.71014 25H118L88.9275 0Z" fill="#4D0060"/>
<path d="M83.6522 4L0 6.91241L1.6087 25H111L83.6522 4Z" fill="#C28D04"/>
<path d="M16.7344 16.0078H13.7969L14.0703 14.3984L16.3359 14.4062C16.6797 14.4062 17.0078 14.3594 17.3203 14.2656C17.638 14.1667 17.9036 14.0078 18.1172 13.7891C18.3359 13.5651 18.474 13.2656 18.5312 12.8906C18.5781 12.5365 18.5469 12.2578 18.4375 12.0547C18.3281 11.8516 18.1536 11.7057 17.9141 11.6172C17.6797 11.5234 17.401 11.474 17.0781 11.4688L15.3906 11.4609L13.7344 21H11.4453L13.4141 9.625L17.1484 9.63281C17.638 9.63802 18.112 9.69531 18.5703 9.80469C19.0286 9.91406 19.4349 10.0859 19.7891 10.3203C20.1432 10.5547 20.4167 10.8646 20.6094 11.25C20.8073 11.6354 20.888 12.1094 20.8516 12.6719C20.8151 13.2865 20.638 13.7917 20.3203 14.1875C20.0026 14.5781 19.5964 14.8724 19.1016 15.0703C18.612 15.2682 18.0859 15.3828 17.5234 15.4141L16.7344 16.0078ZM15.8047 21H12.2578L13.4609 19.1719L15.875 19.1797C16.2188 19.1797 16.5391 19.1224 16.8359 19.0078C17.138 18.888 17.3906 18.7109 17.5938 18.4766C17.7969 18.2422 17.9245 17.9427 17.9766 17.5781C18.0234 17.2708 18.0104 17.0026 17.9375 16.7734C17.8646 16.5391 17.7292 16.3594 17.5312 16.2344C17.3385 16.1042 17.0807 16.0312 16.7578 16.0156L14.4453 16.0078L14.7344 14.3984L17.3906 14.4062L17.7812 15.0312C18.2917 15.0573 18.7344 15.1745 19.1094 15.3828C19.4896 15.5859 19.7786 15.875 19.9766 16.25C20.1745 16.625 20.2552 17.0755 20.2188 17.6016C20.1667 18.4141 19.9297 19.0703 19.5078 19.5703C19.0859 20.0703 18.5469 20.4349 17.8906 20.6641C17.2396 20.8932 16.5443 21.0052 15.8047 21ZM21.6016 16.9062L21.625 16.7422C21.6875 16.1432 21.8307 15.5807 22.0547 15.0547C22.2839 14.5234 22.5859 14.0573 22.9609 13.6562C23.3411 13.25 23.7865 12.9349 24.2969 12.7109C24.8125 12.4818 25.3906 12.375 26.0312 12.3906C26.6406 12.401 27.1667 12.5234 27.6094 12.7578C28.0521 12.9922 28.4141 13.3073 28.6953 13.7031C28.9818 14.099 29.1823 14.5521 29.2969 15.0625C29.4167 15.5729 29.4505 16.112 29.3984 16.6797L29.3828 16.8516C29.3151 17.4453 29.1641 18.0052 28.9297 18.5312C28.7005 19.0521 28.3958 19.513 28.0156 19.9141C27.6406 20.3099 27.1953 20.6198 26.6797 20.8438C26.1641 21.0677 25.5911 21.1719 24.9609 21.1562C24.362 21.1458 23.8385 21.026 23.3906 20.7969C22.9427 20.5625 22.5781 20.25 22.2969 19.8594C22.0156 19.4635 21.8177 19.013 21.7031 18.5078C21.5885 18.0026 21.5547 17.4688 21.6016 16.9062ZM23.8203 16.7422L23.8047 16.9141C23.7786 17.1641 23.7708 17.4323 23.7812 17.7188C23.7917 18 23.8359 18.2682 23.9141 18.5234C23.9974 18.7786 24.1328 18.987 24.3203 19.1484C24.5078 19.3099 24.7656 19.3958 25.0938 19.4062C25.4427 19.4167 25.7422 19.3464 25.9922 19.1953C26.2422 19.0443 26.4479 18.8411 26.6094 18.5859C26.7708 18.3255 26.8984 18.0443 26.9922 17.7422C27.0859 17.4349 27.1484 17.1354 27.1797 16.8438L27.1953 16.6797C27.2161 16.4297 27.2214 16.1615 27.2109 15.875C27.2057 15.5833 27.1615 15.3099 27.0781 15.0547C26.9948 14.7943 26.8594 14.5807 26.6719 14.4141C26.4844 14.2474 26.2266 14.1589 25.8984 14.1484C25.5495 14.1328 25.25 14.2057 25 14.3672C24.75 14.5234 24.5443 14.7318 24.3828 14.9922C24.2214 15.2526 24.0938 15.5365 24 15.8438C23.9115 16.151 23.8516 16.4505 23.8203 16.7422ZM30.3672 16.9062L30.3906 16.7422C30.4531 16.1432 30.5964 15.5807 30.8203 15.0547C31.0495 14.5234 31.3516 14.0573 31.7266 13.6562C32.1068 13.25 32.5521 12.9349 33.0625 12.7109C33.5781 12.4818 34.1562 12.375 34.7969 12.3906C35.4062 12.401 35.9323 12.5234 36.375 12.7578C36.8177 12.9922 37.1797 13.3073 37.4609 13.7031C37.7474 14.099 37.9479 14.5521 38.0625 15.0625C38.1823 15.5729 38.2161 16.112 38.1641 16.6797L38.1484 16.8516C38.0807 17.4453 37.9297 18.0052 37.6953 18.5312C37.4661 19.0521 37.1615 19.513 36.7812 19.9141C36.4062 20.3099 35.9609 20.6198 35.4453 20.8438C34.9297 21.0677 34.3568 21.1719 33.7266 21.1562C33.1276 21.1458 32.6042 21.026 32.1562 20.7969C31.7083 20.5625 31.3438 20.25 31.0625 19.8594C30.7812 19.4635 30.5833 19.013 30.4688 18.5078C30.3542 18.0026 30.3203 17.4688 30.3672 16.9062ZM32.5859 16.7422L32.5703 16.9141C32.5443 17.1641 32.5365 17.4323 32.5469 17.7188C32.5573 18 32.6016 18.2682 32.6797 18.5234C32.763 18.7786 32.8984 18.987 33.0859 19.1484C33.2734 19.3099 33.5312 19.3958 33.8594 19.4062C34.2083 19.4167 34.5078 19.3464 34.7578 19.1953C35.0078 19.0443 35.2135 18.8411 35.375 18.5859C35.5365 18.3255 35.6641 18.0443 35.7578 17.7422C35.8516 17.4349 35.9141 17.1354 35.9453 16.8438L35.9609 16.6797C35.9818 16.4297 35.987 16.1615 35.9766 15.875C35.9714 15.5833 35.9271 15.3099 35.8438 15.0547C35.7604 14.7943 35.625 14.5807 35.4375 14.4141C35.25 14.2474 34.9922 14.1589 34.6641 14.1484C34.3151 14.1328 34.0156 14.2057 33.7656 14.3672C33.5156 14.5234 33.3099 14.7318 33.1484 14.9922C32.987 15.2526 32.8594 15.5365 32.7656 15.8438C32.6771 16.151 32.6172 16.4505 32.5859 16.7422ZM43.6484 18.6172C43.6901 18.3672 43.6276 18.1745 43.4609 18.0391C43.2943 17.8984 43.0885 17.7917 42.8438 17.7188C42.6042 17.6458 42.3958 17.5885 42.2188 17.5469C41.9062 17.4635 41.5911 17.3594 41.2734 17.2344C40.9609 17.1042 40.6771 16.9427 40.4219 16.75C40.1667 16.5573 39.9635 16.3229 39.8125 16.0469C39.6615 15.7656 39.5938 15.4349 39.6094 15.0547C39.625 14.6016 39.7396 14.2083 39.9531 13.875C40.1719 13.5365 40.4531 13.2578 40.7969 13.0391C41.1406 12.8151 41.5156 12.6484 41.9219 12.5391C42.3281 12.4297 42.7318 12.3802 43.1328 12.3906C43.6953 12.3958 44.2161 12.5 44.6953 12.7031C45.1797 12.9062 45.5703 13.2083 45.8672 13.6094C46.1693 14.0104 46.3203 14.5104 46.3203 15.1094L44.1406 15.1016C44.1458 14.8724 44.1094 14.6719 44.0312 14.5C43.9531 14.3281 43.8333 14.1953 43.6719 14.1016C43.5104 14.0078 43.3047 13.9609 43.0547 13.9609C42.8568 13.9609 42.6589 14 42.4609 14.0781C42.2682 14.151 42.1016 14.2604 41.9609 14.4062C41.8203 14.5521 41.7318 14.7318 41.6953 14.9453C41.6641 15.1224 41.6901 15.2682 41.7734 15.3828C41.8568 15.4974 41.9688 15.5911 42.1094 15.6641C42.25 15.7318 42.3984 15.7891 42.5547 15.8359C42.7109 15.8776 42.8516 15.9115 42.9766 15.9375C43.4349 16.0573 43.8828 16.2109 44.3203 16.3984C44.7578 16.5859 45.1146 16.849 45.3906 17.1875C45.6667 17.5208 45.7943 17.9661 45.7734 18.5234C45.7578 18.9974 45.6328 19.4036 45.3984 19.7422C45.1641 20.0755 44.862 20.349 44.4922 20.5625C44.1276 20.7708 43.7318 20.9219 43.3047 21.0156C42.8828 21.1146 42.4688 21.1615 42.0625 21.1562C41.4948 21.1458 40.9609 21.0312 40.4609 20.8125C39.9661 20.5938 39.5651 20.276 39.2578 19.8594C38.9505 19.4375 38.7943 18.9219 38.7891 18.3125L40.8516 18.3203C40.8568 18.5911 40.9115 18.8203 41.0156 19.0078C41.1198 19.1953 41.2682 19.3385 41.4609 19.4375C41.6589 19.5312 41.8932 19.5781 42.1641 19.5781C42.3776 19.5833 42.5885 19.5547 42.7969 19.4922C43.0104 19.4297 43.1953 19.3281 43.3516 19.1875C43.5078 19.0417 43.6068 18.8516 43.6484 18.6172ZM52.2344 12.5469L51.9531 14.1406H47.1641L47.4453 12.5469H52.2344ZM48.9922 10.4609H51.1875L49.8125 18.4688C49.7917 18.651 49.7917 18.8073 49.8125 18.9375C49.8385 19.0625 49.8984 19.1589 49.9922 19.2266C50.0859 19.2943 50.2318 19.3333 50.4297 19.3438C50.5391 19.349 50.6484 19.3464 50.7578 19.3359C50.8672 19.3203 50.9792 19.3047 51.0938 19.2891L50.9375 20.9688C50.7292 21.0312 50.5182 21.0755 50.3047 21.1016C50.0964 21.1328 49.8828 21.1484 49.6641 21.1484C49.1641 21.138 48.7526 21.0286 48.4297 20.8203C48.112 20.612 47.8828 20.3255 47.7422 19.9609C47.6068 19.5911 47.5625 19.1641 47.6094 18.6797L48.9922 10.4609ZM67.0234 9.625L65.0469 21H62.8281L59.6797 13.2891L58.3438 21H56.0547L58.0234 9.625H60.25L63.4062 17.3438L64.7422 9.625H67.0234ZM67.2578 16.9062L67.2812 16.7422C67.3438 16.1432 67.487 15.5807 67.7109 15.0547C67.9401 14.5234 68.2422 14.0573 68.6172 13.6562C68.9974 13.25 69.4427 12.9349 69.9531 12.7109C70.4688 12.4818 71.0469 12.375 71.6875 12.3906C72.2969 12.401 72.8229 12.5234 73.2656 12.7578C73.7083 12.9922 74.0703 13.3073 74.3516 13.7031C74.638 14.099 74.8385 14.5521 74.9531 15.0625C75.0729 15.5729 75.1068 16.112 75.0547 16.6797L75.0391 16.8516C74.9714 17.4453 74.8203 18.0052 74.5859 18.5312C74.3568 19.0521 74.0521 19.513 73.6719 19.9141C73.2969 20.3099 72.8516 20.6198 72.3359 20.8438C71.8203 21.0677 71.2474 21.1719 70.6172 21.1562C70.0182 21.1458 69.4948 21.026 69.0469 20.7969C68.599 20.5625 68.2344 20.25 67.9531 19.8594C67.6719 19.4635 67.474 19.013 67.3594 18.5078C67.2448 18.0026 67.2109 17.4688 67.2578 16.9062ZM69.4766 16.7422L69.4609 16.9141C69.4349 17.1641 69.4271 17.4323 69.4375 17.7188C69.4479 18 69.4922 18.2682 69.5703 18.5234C69.6536 18.7786 69.7891 18.987 69.9766 19.1484C70.1641 19.3099 70.4219 19.3958 70.75 19.4062C71.099 19.4167 71.3984 19.3464 71.6484 19.1953C71.8984 19.0443 72.1042 18.8411 72.2656 18.5859C72.4271 18.3255 72.5547 18.0443 72.6484 17.7422C72.7422 17.4349 72.8047 17.1354 72.8359 16.8438L72.8516 16.6797C72.8724 16.4297 72.8776 16.1615 72.8672 15.875C72.862 15.5833 72.8177 15.3099 72.7344 15.0547C72.651 14.7943 72.5156 14.5807 72.3281 14.4141C72.1406 14.2474 71.8828 14.1589 71.5547 14.1484C71.2057 14.1328 70.9062 14.2057 70.6562 14.3672C70.4062 14.5234 70.2005 14.7318 70.0391 14.9922C69.8776 15.2526 69.75 15.5365 69.6562 15.8438C69.5677 16.151 69.5078 16.4505 69.4766 16.7422ZM78.375 18.7031L81.125 12.5469H82.5703L81.6641 15.1094L78.9688 21H77.75L78.375 18.7031ZM78.5781 12.5469L78.7109 18.9219L78.4531 21H77.125L76.5 12.5469H78.5781ZM83.0547 18.5938L85.2734 12.5469H87.4453L83.9062 21H82.5L83.0547 18.5938ZM82.7109 12.5469L83.3438 18.8828L83.1953 21H82.0625L81.3828 14.9141V12.5469H82.7109Z" fill="white"/>
</svg>
